<svg xmlns="http://www.w3.org/2000/svg" width="1000" height="750"><g transform="translate(40,20)"><path fill="none" stroke="yellow" stroke-width="1.5" stroke-linejoin="round" d="M0,130.351L1.55,129.633C3.1,128.915,6.2,127.479,9.3,126.056C12.4,124.632,15.501,123.22,18.601,121.82C21.701,120.421,24.801,119.033,27.901,117.658C31.001,116.282,34.101,114.918,37.201,113.567C40.301,112.216,43.401,110.876,46.502,109.549C49.602,108.222,52.702,106.906,55.802,105.603C58.902,104.3,62.002,103.009,65.102,101.73C68.202,100.451,71.302,99.184,74.402,97.929C77.503,96.674,80.603,95.431,83.703,94.2C86.803,92.969,89.903,91.751,93.003,90.544C96.103,89.337,99.203,88.143,102.303,86.96C105.403,85.778,108.504,84.607,111.604,83.449C114.704,82.29,117.804,81.144,120.904,80.01C124.004,78.875,127.104,77.753,130.204,76.643C133.304,75.533,136.404,74.435,139.505,73.348C142.605,72.262,145.705,71.188,148.805,70.127C151.905,69.065,155.005,68.015,158.105,66.977C161.205,65.939,164.305,64.913,167.405,63.9C170.506,62.886,173.606,61.884,176.706,60.895C179.806,59.905,182.906,58.928,186.006,57.962C189.106,56.997,192.206,56.044,195.306,55.102C198.407,54.161,201.507,53.232,204.607,52.315C207.707,51.397,210.807,50.492,213.907,49.599C217.007,48.706,220.107,47.825,223.207,46.956C226.307,46.087,229.408,45.23,232.508,44.386C235.608,43.541,238.708,42.708,241.808,41.887C244.908,41.067,248.008,40.258,251.108,39.462C254.208,38.665,257.308,37.881,260.409,37.108C263.509,36.336,266.609,35.575,269.709,34.827C272.809,34.079,275.909,33.343,279.009,32.618C282.109,31.894,285.209,31.182,288.309,30.482C291.41,29.782,294.51,29.094,297.61,28.418C300.71,27.742,303.81,27.078,306.91,26.426C310.01,25.775,313.11,25.135,316.21,24.507C319.31,23.88,322.411,23.264,325.511,22.66C328.611,22.057,331.711,21.465,334.811,20.886C337.911,20.307,341.011,19.739,344.111,19.184C347.211,18.629,350.311,18.085,353.412,17.554C356.512,17.023,359.612,16.504,362.712,15.997C365.812,15.49,368.912,14.995,372.012,14.512C375.112,14.029,378.212,13.558,381.313,13.099C384.413,12.641,387.513,12.194,390.613,11.759C393.713,11.325,396.813,10.902,399.913,10.491C403.013,10.081,406.113,9.682,409.213,9.296C412.314,8.91,415.414,8.535,418.514,8.173C421.614,7.811,424.714,7.46,427.814,7.122C430.914,6.784,434.014,6.458,437.114,6.144C440.214,5.83,443.315,5.528,446.415,5.238C449.515,4.948,452.615,4.67,455.715,4.404C458.815,4.139,461.915,3.885,465.015,3.643C468.115,3.402,471.215,3.172,474.316,2.954C477.416,2.737,480.516,2.531,483.616,2.338C486.716,2.145,489.816,1.963,492.916,1.794C496.016,1.625,499.116,1.467,502.216,1.322C505.317,1.177,508.417,1.044,511.517,0.923C514.617,0.802,517.717,0.693,520.817,0.596C523.917,0.499,527.017,0.414,530.117,0.341C533.217,0.269,536.318,0.208,539.418,0.159C542.518,0.111,545.618,0.074,548.718,0.049C551.818,0.025,554.918,0.012,558.018,0.012C561.118,0.012,564.219,0.023,567.319,0.047C570.419,0.071,573.519,0.107,576.619,0.154C579.719,0.202,582.819,0.262,585.919,0.334C589.019,0.406,592.119,0.49,595.22,0.586C598.32,0.682,601.42,0.79,604.52,0.911C607.62,1.031,610.72,1.163,613.82,1.307C616.92,1.452,620.02,1.608,623.12,1.777C626.221,1.945,629.321,2.126,632.421,2.318C635.521,2.511,638.621,2.716,641.721,2.932C644.821,3.149,647.921,3.378,651.021,3.619C654.121,3.859,657.222,4.112,660.322,4.377C663.422,4.642,666.522,4.919,669.622,5.208C672.722,5.497,675.822,5.799,678.922,6.112C682.022,6.425,685.122,6.75,688.223,7.088C691.323,7.425,694.423,7.774,697.523,8.136C700.623,8.497,703.723,8.871,706.823,9.257C709.923,9.642,713.023,10.04,716.124,10.45C719.224,10.859,722.324,11.281,725.424,11.715C728.524,12.149,731.624,12.595,734.724,13.053C737.824,13.511,740.924,13.981,744.024,14.463C747.125,14.945,750.225,15.439,753.325,15.945C756.425,16.451,759.525,16.97,762.625,17.5C765.725,18.03,768.825,18.573,771.925,19.127C775.025,19.682,778.126,20.248,781.226,20.827C784.326,21.405,787.426,21.996,790.526,22.599C793.626,23.202,796.726,23.816,799.826,24.443C802.926,25.07,806.026,25.709,809.127,26.36C812.227,27.011,815.327,27.674,818.427,28.349C821.527,29.024,824.627,29.711,827.727,30.411C830.827,31.11,833.927,31.821,837.027,32.544C840.128,33.268,843.228,34.003,846.328,34.751C849.428,35.498,852.528,36.258,855.628,37.029C858.728,37.801,861.828,38.585,864.928,39.38C868.028,40.176,871.129,40.984,874.229,41.804C877.329,42.624,880.429,43.455,883.529,44.299C886.629,45.143,889.729,45.999,892.829,46.868C895.929,47.736,899.03,48.616,902.13,49.508C905.23,50.4,908.33,51.305,911.43,52.221C914.53,53.137,917.63,54.066,919.18,54.53L920.73,54.994"></path><g transform="translate(0,690)" fill="none" font-size="10" font-family="sans-serif" text-anchor="middle"><path class="domain" stroke="currentColor" d="M0.5,6V0.5H930.5V6"></path><g class="tick" opacity="1" transform="translate(0.5,0)"><line stroke="currentColor" y2="6"></line><text fill="currentColor" y="9" dy="0.71em">0.0</text></g><g class="tick" opacity="1" transform="translate(93.50305197626639,0)"><line stroke="currentColor" y2="6"></line><text fill="currentColor" y="9" dy="0.71em">0.5</text></g><g class="tick" opacity="1" transform="translate(186.50610395253278,0)"><line stroke="currentColor" y2="6"></line><text fill="currentColor" y="9" dy="0.71em">1.0</text></g><g class="tick" opacity="1" transform="translate(279.5091559287992,0)"><line stroke="currentColor" y2="6"></line><text fill="currentColor" y="9" dy="0.71em">1.5</text></g><g class="tick" opacity="1" transform="translate(372.51220790506557,0)"><line stroke="currentColor" y2="6"></line><text fill="currentColor" y="9" dy="0.71em">2.0</text></g><g class="tick" opacity="1" transform="translate(465.515259881332,0)"><line stroke="currentColor" y2="6"></line><text fill="currentColor" y="9" dy="0.71em">2.5</text></g><g class="tick" opacity="1" transform="translate(558.5183118575984,0)"><line stroke="currentColor" y2="6"></line><text fill="currentColor" y="9" dy="0.71em">3.0</text></g><g class="tick" opacity="1" transform="translate(651.5213638338648,0)"><line stroke="currentColor" y2="6"></line><text fill="currentColor" y="9" dy="0.71em">3.5</text></g><g class="tick" opacity="1" transform="translate(744.5244158101311,0)"><line stroke="currentColor" y2="6"></line><text fill="currentColor" y="9" dy="0.71em">4.0</text></g><g class="tick" opacity="1" transform="translate(837.5274677863976,0)"><line stroke="currentColor" y2="6"></line><text fill="currentColor" y="9" dy="0.71em">4.5</text></g></g><g fill="none" font-size="10" font-family="sans-serif" text-anchor="end"><path class="domain" stroke="currentColor" d="M-6,690.5H0.5V0.5H-6"></path><g class="tick" opacity="1" transform="translate(0,690.5)"><line stroke="currentColor" x2="-6"></line><text fill="currentColor" x="-9" dy="0.32em">0.00</text></g><g class="tick" opacity="1" transform="translate(0,624.2998135339238)"><line stroke="currentColor" x2="-6"></line><text fill="currentColor" x="-9" dy="0.32em">0.01</text></g><g class="tick" opacity="1" transform="translate(0,558.0996270678476)"><line stroke="currentColor" x2="-6"></line><text fill="currentColor" x="-9" dy="0.32em">0.02</text></g><g class="tick" opacity="1" transform="translate(0,491.8994406017714)"><line stroke="currentColor" x2="-6"></line><text fill="currentColor" x="-9" dy="0.32em">0.03</text></g><g class="tick" opacity="1" transform="translate(0,425.6992541356952)"><line stroke="currentColor" x2="-6"></line><text fill="currentColor" x="-9" dy="0.32em">0.04</text></g><g class="tick" opacity="1" transform="translate(0,359.499067669619)"><line stroke="currentColor" x2="-6"></line><text fill="currentColor" x="-9" dy="0.32em">0.05</text></g><g class="tick" opacity="1" transform="translate(0,293.2988812035428)"><line stroke="currentColor" x2="-6"></line><text fill="currentColor" x="-9" dy="0.32em">0.06</text></g><g class="tick" opacity="1" transform="translate(0,227.0986947374666)"><line stroke="currentColor" x2="-6"></line><text fill="currentColor" x="-9" dy="0.32em">0.07</text></g><g class="tick" opacity="1" transform="translate(0,160.89850827139043)"><line stroke="currentColor" x2="-6"></line><text fill="currentColor" x="-9" dy="0.32em">0.08</text></g><g class="tick" opacity="1" transform="translate(0,94.69832180531424)"><line stroke="currentColor" x2="-6"></line><text fill="currentColor" x="-9" dy="0.32em">0.09</text></g><g class="tick" opacity="1" transform="translate(0,28.498135339237997)"><line stroke="currentColor" x2="-6"></line><text fill="currentColor" x="-9" dy="0.32em">0.10</text></g></g></g></svg>