<?xml version="1.0" encoding="utf-8"?>
<!-- Generator: Adobe Illustrator 26.0.1, SVG Export Plug-In . SVG Version: 6.00 Build 0)  -->
<svg version="1.1" id="Layer_1" xmlns="http://www.w3.org/2000/svg" xmlns:xlink="http://www.w3.org/1999/xlink" x="0px" y="0px"
	 viewBox="0 0 2000 2000" style="enable-background:new 0 0 2000 2000;" xml:space="preserve">
<style type="text/css">
	.st0{fill:#EFDA4F;}
	.st1{fill:#FDFBF0;}
	.st2{fill:#323330;}
	.st3{fill:#264DE4;}
	.st4{fill:#2965F1;}
	.st5{fill:#EBEBEB;}
	.st6{fill:#FFFFFF;}
	.st7{fill:#E44D26;}
	.st8{fill:#F16529;}
</style>
<g id="JS">
	<path class="st0" d="M1399,1924.9c-265.2,0-530.3,0-795.4,0.1c-2.9,0-3.5-0.6-3.5-3.5c0.1-265.2,0.1-530.3,0.1-795.5
		c1.9,0,3.8,0,5.7,0c262.3,0,524.7,0,787,0c1.3,0,2.6,0.1,3.8,0c1.8-0.1,2.6,0.6,2.5,2.4c-0.1,1.3,0,2.6,0,3.8
		c0,262.2,0,524.5,0,786.7C1399.1,1920.8,1399,1922.9,1399,1924.9z M1211.5,1861.6c18.3-0.2,36.4-2.2,53.8-8.2
		c24.6-8.4,45-22.4,58.2-45.4c10.5-18.3,13.4-38.2,12.4-59c-1.4-30.4-13.3-55.5-37-74.8c-16.2-13.2-34.7-22.6-53.7-31.2
		c-14.9-6.7-30.2-12.5-44.7-19.8c-7.4-3.8-14.4-7.9-20.2-13.9c-12.8-13-13.7-44.3,12.4-53.1c17.9-6.1,34.8-3,49,10.3
		c5.2,4.9,9.3,10.7,12.8,16.9c1,1.7,1.7,2.1,3.4,1c18.1-11.7,36.2-23.3,54.3-34.9c1.5-1,1.8-1.7,0.9-3.3
		c-11.7-19.7-26.3-36.4-47.4-46.2c-30.7-14.2-62.6-15.3-95-6.8c-26.2,6.9-46.9,21.8-60.6,45.5c-10.5,18.2-13.4,38-12.1,58.6
		c1.8,26.9,11.8,50,31.9,68.4c16.1,14.8,35.1,24.7,54.9,33.4c15.4,6.8,31,13,46.1,20.6c7.4,3.8,14.7,7.9,20.6,14.1
		c8.7,9,11.3,20,8.6,31.9c-2.8,12.6-11.4,20.6-23.2,24.6c-27.6,9.4-53.7,6.1-77-12.2c-8.9-7-15.7-15.8-21.7-25.3
		c-1.4-2.3-2.5-3-5.2-1.4c-18.3,10.8-36.7,21.4-55.2,32c-2.3,1.4-2.6,2.3-1.3,4.6c11.1,20.4,26.2,37.1,45.9,49.7
		C1149.7,1854.9,1179.8,1861.3,1211.5,1861.6z M1034.2,1628.7c0.1,0,0.2,0,0.2,0c0-44.1,0-88.2,0.1-132.2c0-3.3-0.8-4.2-4.2-4.2
		c-22.1,0.2-44.1,0.2-66.2,0c-3.8,0-4.8,0.8-4.8,4.7c0.2,82.9,0.1,165.7,0.1,248.5c0,6.3-0.3,12.6-1.4,18.9
		c-2.1,11.1-6.2,21.1-17.3,26.1c-14.3,6.4-39.4,7.5-54.5-11.2c-5.3-6.6-9.8-13.5-13.8-20.9c-1.1-2.1-2-2.2-4-1
		c-18.6,11.4-37.2,22.6-55.9,33.8c-1.9,1.1-2.6,2.1-1.4,4.4c12.5,24.6,30.5,43.8,56.1,55c27.8,12.2,57,13.5,86.4,7.9
		c23.4-4.5,43.8-15,58.6-34.2c14.8-19,21.3-41.3,21.6-64.8C1034.7,1715.9,1034.2,1672.3,1034.2,1628.7z"/>
	<path class="st1" d="M1399,1924.9c0-2,0-4.1,0-6.1c0-262.2,0-524.5,0-786.7c0-1.3-0.1-2.6,0-3.8c0.1-1.8-0.7-2.6-2.5-2.4
		c-1.3,0.1-2.6,0-3.8,0c-262.3,0-524.7,0-787,0c-1.9,0-3.8,0-5.7,0c0.2-0.2-0.4-0.8,0.4-0.8c1,0,2,0,3,0c264.2,0,528.4,0,792.6-0.1
		c3,0,3.7,0.6,3.7,3.7c-0.1,264.2-0.1,528.5-0.2,792.7C1399.8,1922.6,1400.6,1924.1,1399,1924.9z"/>
	<path class="st2" d="M1211.5,1861.6c-31.8-0.2-61.8-6.6-89-24c-19.6-12.6-34.7-29.3-45.9-49.7c-1.3-2.3-1-3.3,1.3-4.6
		c18.5-10.6,36.9-21.2,55.2-32c2.8-1.6,3.8-0.9,5.2,1.4c5.9,9.5,12.8,18.3,21.7,25.3c23.4,18.3,49.4,21.6,77,12.2
		c11.7-4,20.4-12,23.2-24.6c2.6-12,0.1-22.9-8.6-31.9c-5.9-6.1-13.1-10.2-20.6-14.1c-15-7.6-30.7-13.8-46.1-20.6
		c-19.8-8.6-38.8-18.6-54.9-33.4c-20.1-18.4-30.1-41.5-31.9-68.4c-1.4-20.6,1.6-40.4,12.1-58.6c13.7-23.8,34.3-38.6,60.6-45.5
		c32.3-8.5,64.2-7.4,95,6.8c21.1,9.8,35.8,26.5,47.4,46.2c1,1.6,0.6,2.3-0.9,3.3c-18.2,11.6-36.2,23.2-54.3,34.9
		c-1.8,1.1-2.5,0.7-3.4-1c-3.5-6.2-7.5-12-12.8-16.9c-14.2-13.2-31-16.3-49-10.3c-26.1,8.8-25.2,40.1-12.4,53.1
		c5.8,6,12.9,10.2,20.2,13.9c14.6,7.4,29.8,13.1,44.7,19.8c19,8.6,37.4,18,53.7,31.2c23.8,19.3,35.6,44.4,37,74.8
		c1,20.8-2,40.7-12.4,59c-13.2,23-33.5,37-58.2,45.4C1247.9,1859.3,1229.9,1861.5,1211.5,1861.6z"/>
	<path class="st2" d="M1034.2,1628.7c0,43.6,0.5,87.2-0.2,130.7c-0.4,23.6-6.9,45.8-21.6,64.8c-15,19.3-35.2,29.8-58.6,34.2
		c-29.4,5.6-58.5,4.3-86.4-7.9c-25.5-11.2-43.6-30.3-56.1-55c-1.2-2.3-0.5-3.2,1.4-4.4c18.6-11.2,37.3-22.5,55.9-33.8
		c2-1.2,2.8-1,4,1c4.1,7.3,8.6,14.3,13.8,20.9c15,18.6,40.1,17.6,54.5,11.2c11.1-5,15.2-15,17.3-26.1c1.2-6.2,1.4-12.6,1.4-18.9
		c0-82.9,0-165.7-0.1-248.5c0-3.9,1-4.7,4.8-4.7c22.1,0.2,44.1,0.2,66.2,0c3.4,0,4.2,0.9,4.2,4.2c-0.1,44.1-0.1,88.2-0.1,132.2
		C1034.4,1628.7,1034.3,1628.7,1034.2,1628.7z"/>
</g>
<g id="CSS" transform="translate(-193.633,-276.3622)">
	<g id="g3013" transform="translate(119,276.3622)">
		<polygon id="polygon2989" class="st3" points="1893.5,251.9 1835.3,902.6 1574.3,975 1313.9,902.7 1255.8,251.9 		"/>
		<polygon id="polygon2991" class="st4" points="1785.7,861.2 1835.3,305.1 1574.6,305.1 1574.6,919.7 		"/>
		<polygon id="polygon2993" class="st5" points="1388.9,546.5 1396.1,626.3 1574.6,626.3 1574.6,546.5 		"/>
		<polygon id="polygon2995" class="st5" points="1574.6,384.9 1574.3,384.9 1374.5,384.9 1381.7,464.7 1574.6,464.7 		"/>
		<polygon id="polygon2997" class="st5" points="1574.6,836.8 1574.6,753.8 1574.3,753.9 1485.4,729.8 1479.8,666.2 1436.6,666.2 
			1399.6,666.2 1410.7,791.6 1574.3,836.9 		"/>
		<path id="path2999" d="M1405.9,75h96.7v40.4h-56.2v40.4h56.2v40.4h-96.7V75z"/>
		<path id="path3001" d="M1521.9,75h96.7v35.2h-56.2v7h56.2V198h-96.8v-36.9h56.2v-7h-56.2V75H1521.9z"/>
		<path id="path3003" d="M1637.9,75h96.7v35.2h-56.2v7h56.2V198h-96.7v-36.9h56.2v-7h-56.2V75z"/>
		<polygon id="polygon3005" class="st6" points="1672.6,626.3 1663.4,729.8 1574.3,753.9 1574.3,836.9 1738.1,791.6 1739.2,778.1 
			1757.9,567.9 1759.9,546.5 1774.3,384.9 1574.3,384.9 1574.3,464.7 1686.8,464.7 1679.6,546.5 1574.3,546.5 1574.3,626.3 		"/>
	</g>
</g>
<g id="HTML">
	<path d="M240.6,75H281v40.1h37.3V75h40.5v121.3h-40.5v-40.5h-36.9v40.4h-40.8 M412.1,115.4h-35.6V75h112v40.4h-35.8v80.8h-40.4
		 M506.1,75h42.4l26,42.8l26-42.8h42.4v121.3h-40.4v-60.1l-28.3,43.6l-28.3-43.6v60.1h-39.7 M663,75h40.4v81.2h57.3v40.1H663"/>
	<path class="st7" d="M239.2,902.9l-58.1-651.1h637.7l-58.1,650.7L499.5,975"/>
	<path class="st8" d="M500,919.7V305.3h260.6L711,860.7"/>
	<path class="st5" d="M299.6,384.9H500v79.8H387.2l7.4,81.7H500v79.7H321.5 M325,666.1h80.2l5.6,63.8l89.3,23.9v83.3l-163.8-45.7"/>
	<path class="st6" d="M699.7,384.9h-200v79.8h192.7 M685.2,546.4H499.7v79.8h98.5l-9.4,103.7l-89.1,23.9v83l163.4-45.4"/>
</g>
</svg>
