<?xml version="1.0" encoding="utf-8"?>
<!-- Generator: Adobe Illustrator 26.0.1, SVG Export Plug-In . SVG Version: 6.00 Build 0)  -->
<svg version="1.1" id="Layer_1" xmlns="http://www.w3.org/2000/svg" xmlns:xlink="http://www.w3.org/1999/xlink" x="0px" y="0px"
	 viewBox="0 0 1000 1000" style="enable-background:new 0 0 1000 1000;" xml:space="preserve">
<style type="text/css">
	.st0{fill:#EFDA4F;}
	.st1{fill:#FDFBF0;}
	.st2{fill:#323330;}
</style>
<path class="st0" d="M998.8,999.9c-331.5,0-663,0-994.4,0.1c-3.6,0-4.4-0.8-4.4-4.4C0.1,664.1,0.1,332.6,0.1,1.1c2.4,0,4.8,0,7.1,0
	c327.9,0,655.9,0,983.8,0c1.6,0,3.2,0.1,4.8,0c2.2-0.1,3.2,0.7,3.1,3c-0.1,1.6,0,3.2,0,4.8c0,327.8,0,655.7,0,983.5
	C998.9,994.8,998.8,997.4,998.8,999.9z M764.3,920.7c22.9-0.2,45.5-2.8,67.3-10.2c30.8-10.5,56.3-28,72.8-56.8
	c13.1-22.9,16.8-47.8,15.5-73.7c-1.8-38-16.6-69.4-46.3-93.5c-20.3-16.5-43.4-28.3-67.1-39c-18.6-8.4-37.7-15.6-55.9-24.8
	c-9.2-4.7-18-9.9-25.3-17.4c-16-16.2-17.1-55.4,15.5-66.4c22.4-7.6,43.5-3.7,61.3,12.9c6.5,6.1,11.6,13.4,16,21.1
	c1.2,2.1,2.1,2.6,4.3,1.2c22.6-14.6,45.2-29.1,67.9-43.6c1.9-1.2,2.2-2.1,1.1-4.1c-14.6-24.6-32.9-45.5-59.3-57.7
	c-38.4-17.8-78.3-19.1-118.7-8.5c-32.7,8.6-58.6,27.2-75.7,56.9c-13.1,22.7-16.8,47.5-15.1,73.3c2.3,33.6,14.8,62.5,39.9,85.5
	c20.1,18.5,43.9,30.9,68.6,41.7c19.2,8.5,38.8,16.2,57.6,25.7c9.3,4.7,18.4,9.9,25.8,17.6c10.9,11.3,14.1,25,10.8,39.9
	c-3.5,15.8-14.3,25.8-29,30.8c-34.5,11.8-67.1,7.6-96.3-15.2c-11.1-8.7-19.6-19.7-27.1-31.6c-1.8-2.9-3.1-3.8-6.5-1.8
	c-22.9,13.5-45.9,26.8-69,40c-2.9,1.7-3.2,2.9-1.6,5.8c13.9,25.5,32.8,46.4,57.4,62.1C687.1,912.4,724.7,920.4,764.3,920.7z
	 M542.7,629.6c0.1,0,0.2,0,0.3,0c0-55.1,0-110.2,0.1-165.3c0-4.1-1-5.3-5.2-5.2c-27.6,0.2-55.1,0.2-82.7,0c-4.7,0-6,1-6,5.9
	c0.2,103.6,0.1,207.1,0.1,310.7c0,7.9-0.4,15.8-1.8,23.6c-2.6,13.9-7.8,26.4-21.6,32.6c-17.9,8-49.2,9.4-68.1-14
	c-6.6-8.2-12.2-16.9-17.3-26.1c-1.4-2.6-2.5-2.8-5-1.3c-23.2,14.2-46.5,28.2-69.9,42.2c-2.4,1.4-3.3,2.6-1.8,5.5
	c15.6,30.8,38.1,54.7,70.1,68.7c34.8,15.3,71.2,16.9,108,9.9c29.3-5.6,54.7-18.7,73.3-42.8c18.5-23.8,26.6-51.6,27-81
	C543.3,738.6,542.7,684.1,542.7,629.6z"/>
<path class="st1" d="M998.8,999.9c0-2.5,0-5.1,0-7.6c0-327.8,0-655.7,0-983.5c0-1.6-0.1-3.2,0-4.8c0.1-2.3-0.9-3.2-3.1-3
	c-1.6,0.1-3.2,0-4.8,0c-327.9,0-655.9,0-983.8,0c-2.4,0-4.8,0-7.1,0c0.2-0.3-0.5-1,0.5-1c1.3,0,2.5,0,3.8,0
	c330.3,0,660.6,0,990.9-0.1c3.8,0,4.6,0.8,4.6,4.6c-0.1,330.3-0.1,660.7-0.2,991C999.7,997,1000.8,998.9,998.8,999.9z"/>
<path class="st2" d="M764.3,920.7c-39.7-0.3-77.3-8.3-111.2-30c-24.5-15.7-43.4-36.6-57.4-62.1c-1.6-2.9-1.3-4.1,1.6-5.8
	c23.1-13.2,46.1-26.5,69-40c3.5-2,4.7-1.1,6.5,1.8c7.4,11.9,16,22.9,27.1,31.6c29.2,22.9,61.7,27,96.3,15.2c14.6-5,25.5-15,29-30.8
	c3.3-15,0.1-28.6-10.8-39.9c-7.4-7.6-16.4-12.8-25.8-17.6c-18.8-9.5-38.4-17.2-57.6-25.7c-24.7-10.8-48.5-23.3-68.6-41.7
	c-25.1-23-37.6-51.9-39.9-85.5c-1.7-25.8,2-50.5,15.1-73.3c17.1-29.7,42.9-48.3,75.7-56.9c40.4-10.6,80.3-9.2,118.7,8.5
	c26.4,12.2,44.8,33.1,59.3,57.7c1.2,2,0.8,2.9-1.1,4.1c-22.7,14.5-45.3,29-67.9,43.6c-2.2,1.4-3.1,0.9-4.3-1.2
	c-4.4-7.7-9.4-15-16-21.1c-17.8-16.5-38.8-20.4-61.3-12.9c-32.6,11-31.5,50.1-15.5,66.4c7.3,7.5,16.1,12.7,25.3,17.4
	c18.2,9.2,37.3,16.4,55.9,24.8c23.7,10.7,46.7,22.5,67.1,39c29.7,24.1,44.5,55.5,46.3,93.5c1.2,26-2.5,50.9-15.5,73.7
	c-16.5,28.8-41.9,46.3-72.8,56.8C809.8,917.9,787.3,920.6,764.3,920.7z"/>
<path class="st2" d="M542.7,629.6c0,54.5,0.6,109-0.2,163.4c-0.5,29.5-8.6,57.2-27,81c-18.7,24.1-44,37.3-73.3,42.8
	c-36.8,7-73.1,5.4-108-9.9c-31.9-14-54.5-37.9-70.1-68.7c-1.5-2.9-0.6-4,1.8-5.5c23.3-14,46.6-28.1,69.9-42.2c2.5-1.5,3.5-1.3,5,1.3
	c5.1,9.1,10.7,17.9,17.3,26.1c18.8,23.3,50.1,22,68.1,14c13.9-6.2,19-18.7,21.6-32.6c1.5-7.8,1.8-15.7,1.8-23.6
	c0-103.6,0-207.2-0.1-310.7c0-4.9,1.3-5.9,6-5.9c27.6,0.2,55.1,0.2,82.7,0c4.2,0,5.2,1.1,5.2,5.2c-0.1,55.1-0.1,110.2-0.1,165.3
	C542.9,629.6,542.8,629.6,542.7,629.6z"/>
</svg>
